<?xml version="1.0" encoding="UTF-8" standalone="no"?>
<svg
   inkscape:export-ydpi="96"
   inkscape:export-xdpi="96"
   inkscape:export-filename="/opt/bmc/ars/arsystem/midtier/NSCAN2/gfx/nscan_touch_icon.png"
   sodipodi:docname="app_touch_icon.svg"
   inkscape:version="1.4.2 (ebf0e940d0, 2025-05-08)"
   id="svg8"
   version="1.1"
   viewBox="0 0 47.624999 47.625001"
   height="180"
   width="180"
   xml:space="preserve"
   xmlns:inkscape="http://www.inkscape.org/namespaces/inkscape"
   xmlns:sodipodi="http://sodipodi.sourceforge.net/DTD/sodipodi-0.dtd"
   xmlns="http://www.w3.org/2000/svg"
   xmlns:svg="http://www.w3.org/2000/svg"
   xmlns:rdf="http://www.w3.org/1999/02/22-rdf-syntax-ns#"
   xmlns:cc="http://creativecommons.org/ns#"
   xmlns:dc="http://purl.org/dc/elements/1.1/"><defs
     id="defs2" /><sodipodi:namedview
     inkscape:window-maximized="0"
     inkscape:window-y="23"
     inkscape:window-x="26"
     inkscape:window-height="1069"
     inkscape:window-width="1717"
     units="px"
     showgrid="false"
     inkscape:document-rotation="0"
     inkscape:current-layer="layer1"
     inkscape:document-units="mm"
     inkscape:cy="120.50686"
     inkscape:cx="110.24287"
     inkscape:zoom="2.6305556"
     inkscape:pageshadow="2"
     inkscape:pageopacity="0.0"
     borderopacity="1.0"
     bordercolor="#666666"
     pagecolor="#ffffff"
     id="base"
     inkscape:pagecheckerboard="1"
     inkscape:showpageshadow="0"
     inkscape:deskcolor="#505050"><inkscape:grid
       id="grid833"
       type="xygrid"
       originx="5.5631e-08"
       originy="-3.0199687e-07"
       spacingy="1"
       spacingx="1"
       units="px"
       visible="false" /></sodipodi:namedview><metadata
     id="metadata5"><rdf:RDF><cc:Work
         rdf:about=""><dc:format>image/svg+xml</dc:format><dc:type
           rdf:resource="http://purl.org/dc/dcmitype/StillImage" /></cc:Work></rdf:RDF></metadata><g
     id="layer1"
     inkscape:groupmode="layer"
     inkscape:label="Layer 1"><rect
       y="1.5099843e-07"
       x="-2.7815501e-08"
       height="47.625"
       width="47.625"
       id="rect2968"
       style="fill:#7287ca;stroke-width:1.058;stroke-linejoin:round;fill-opacity:1" /><g
       id="g3"
       transform="matrix(0.15061614,0,0,0.15061614,-1.2206807,-2.0038595)"><path
         fill="#ffffff"
         stroke="#ffffff"
         stroke-width="12"
         d="m 300.81,87.03 a 12.68,12.68 0 0 0 -7.87,-5.02 c -4.25,-0.72 -8.35,0.76 -11.13,3.82 l -34,37.43 a 4.5,4.5 0 0 1 -3.32,1.47 h -90.6 c -17.11,0 -20.71,-13.15 -20.71,-15.74 0,-6.93 1.37,-10.05 2.95,-13.67 1.65,-3.75 3.51,-8.01 3.51,-15.26 0,-16.74 -13.22,-22.15 -19.62,-22.15 -14.97,0 -20.38,7.58 -23.6,12.1 -0.99,1.4 -2.1,1.63 -3.11,0.13 A 94.1,94.1 0 0 1 92.24,68.17 C 89.49,63.02 84.89,54.4 74.1,54.4 c -9.25,0 -16.46,5.97 -19.78,16.39 a 56.17,56.17 0 0 0 -2.4,14.56 c -0.03,0.43 -0.18,0.84 -0.45,1.2 l -20.66,27.39 c -8.14,10.74 -10.26,21.01 -6.48,31.42 4.05,11.14 14.85,16.8 32.07,16.8 h 20.97 a 3.38,3.38 0 0 1 3.38,3.37 v 74.3 c 0,1.6 -3.99,5.12 -6.62,7.45 -3.25,2.86 -6.92,6.11 -9.54,10.12 -5.1,7.81 -3.57,17.97 3.56,23.63 6.19,4.9 15.59,7.38 27.93,7.38 33.89,0 37.81,-17.1 38.15,-19.04 l 0.1,-0.57 v -52.74 a 3.47,3.47 0 0 1 3.47,-3.48 h 45 c 1.43,0 5.4,4.02 8.04,6.68 6.98,7.05 17.04,17.2 33.79,19.9 a 2.29,2.29 0 0 1 1.95,2.23 v 3.8 c 0,0.9 -2.7,2.91 -4.47,4.25 a 46.84,46.84 0 0 0 -6.1,5.19 17.5,17.5 0 0 0 -4.71,13.42 c 0.4,5.04 2.96,9.7 6.99,12.78 6.6,5.03 15.67,7.58 26.98,7.58 32.21,0 37.52,-16.58 38.02,-18.47 l 0.23,-0.84 v -95 c 0,-1.54 -0.13,-2.96 -0.34,-4.24 -0.15,-0.9 0.25,-1.8 1.02,-2.27 8.18,-5.03 20.5,-15.57 24.08,-34.7 4.44,-23.65 -1.48,-37.92 -7.47,-45.86"
         id="path1" /><path
         d="m 88.58,112.8 a 6.83,6.83 0 1 1 -13.66,0 6.83,6.83 0 0 1 13.66,0"
         id="path2" /><path
         d="m 295.1,130.43 c -3.95,21.06 -22.24,28.07 -22.99,28.35 l -5.63,1.75 a 2.69,2.69 0 0 0 -1.22,4.34 l 2.95,3.32 c 2.04,2.4 1.9,4.26 1.9,7.15 v 91.47 c -1.22,1.95 -6.52,8.2 -24.84,8.2 -10.34,0 -15.95,-2.64 -18.84,-4.84 a 4.49,4.49 0 0 1 -1.76,-3.2 c -0.06,-0.68 0,-2 1.08,-3.13 1.2,-1.26 2.76,-2.43 4.42,-3.68 4.14,-3.12 9.82,-7.38 9.82,-14.96 v -11.98 l -0.02,-1.31 a 5.58,5.58 0 0 0 -5.57,-5.5 h -1.21 c -16.42,-0.03 -25.13,-8.82 -32.82,-16.58 -5.43,-5.48 -10.55,-10.66 -17.57,-10.66 H 129 a 8.1,8.1 0 0 0 -8.09,8.1 v 59.84 c -0.86,1.64 -5.45,7.9 -24.83,7.9 -12.13,0 -17.48,-2.82 -19.6,-4.5 -1.67,-1.32 -1.95,-3.8 -0.66,-5.78 1.62,-2.49 4.45,-4.99 7.19,-7.4 5.22,-4.62 11.15,-9.86 11.15,-17.5 v -33.69 c 0,-1.23 0.75,-2.33 1.9,-2.78 4.44,-1.74 14.25,-7.13 14.25,-20.91 0,-12.83 -8.74,-15.93 -13.64,-16.66 a 2.96,2.96 0 0 1 -2.51,-2.95 v -4.4 a 9.69,9.69 0 0 0 -9.7,-9.7 H 56.4 c -11,0 -17.54,-2.67 -19.46,-7.97 -1.55,-4.25 -2.22,-9.8 4.57,-18.74 l 20.67,-27.4 a 15.47,15.47 0 0 0 3.13,-8.77 43.5,43.5 0 0 1 1.8,-11 c 2.24,-7.05 5.69,-7.05 6.99,-7.05 2.36,0 3.59,1.58 6.3,6.67 2.42,4.53 6.07,11.38 14.06,11.38 7.12,0 10.58,-4.85 12.87,-8.06 2.69,-3.76 7.19,-9.03 13.04,-7.08 4.22,1.4 5.85,3.5 5.86,9.34 0,4.44 -1,6.72 -2.38,9.88 -1.82,4.15 -4.08,9.32 -4.08,19.05 0,8.8 7.98,27.68 31.38,29.06 0.95,0.05 1.78,0.67 2.05,1.59 2.7,9.37 13.7,38.57 46.15,38.57 35.45,0 37.15,-28.66 36.8,-37.77 a 2.22,2.22 0 0 1 2.22,-2.3 h 9.5 c 2.89,0 5.66,-1.23 7.6,-3.37 l 33.26,-36.61 a 2.2,2.2 0 0 1 3.56,0.42 c 3.07,5.81 5.8,15.87 2.81,31.85 m 5.71,-43.4 a 12.68,12.68 0 0 0 -7.87,-5.02 c -4.25,-0.72 -8.35,0.76 -11.13,3.82 l -34,37.43 a 4.5,4.5 0 0 1 -3.32,1.47 h -90.6 c -17.11,0 -20.71,-13.15 -20.71,-15.74 0,-6.93 1.37,-10.05 2.95,-13.67 1.65,-3.75 3.51,-8.01 3.51,-15.26 0,-16.74 -13.22,-22.15 -19.62,-22.15 -14.97,0 -20.38,7.58 -23.6,12.1 -0.99,1.4 -2.1,1.63 -3.11,0.13 A 94.1,94.1 0 0 1 92.24,68.17 C 89.49,63.02 84.89,54.4 74.1,54.4 c -9.25,0 -16.46,5.97 -19.78,16.39 a 56.17,56.17 0 0 0 -2.4,14.56 c -0.03,0.43 -0.18,0.84 -0.45,1.2 l -20.66,27.39 c -8.14,10.74 -10.26,21.01 -6.48,31.42 4.05,11.14 14.85,16.8 32.07,16.8 h 20.97 a 3.38,3.38 0 0 1 3.38,3.37 v 74.3 c 0,1.6 -3.99,5.12 -6.62,7.45 -3.25,2.86 -6.92,6.11 -9.54,10.12 -5.1,7.81 -3.57,17.97 3.56,23.63 6.19,4.9 15.59,7.38 27.93,7.38 33.89,0 37.81,-17.1 38.15,-19.04 l 0.1,-0.57 v -52.74 a 3.47,3.47 0 0 1 3.47,-3.48 h 45 c 1.43,0 5.4,4.02 8.04,6.68 6.98,7.05 17.04,17.2 33.79,19.9 a 2.29,2.29 0 0 1 1.95,2.23 v 3.8 c 0,0.9 -2.7,2.91 -4.47,4.25 a 46.84,46.84 0 0 0 -6.1,5.19 17.5,17.5 0 0 0 -4.71,13.42 c 0.4,5.04 2.96,9.7 6.99,12.78 6.6,5.03 15.67,7.58 26.98,7.58 32.21,0 37.52,-16.58 38.02,-18.47 l 0.23,-0.84 v -95 c 0,-1.54 -0.13,-2.96 -0.34,-4.24 -0.15,-0.9 0.25,-1.8 1.02,-2.27 8.18,-5.03 20.5,-15.57 24.08,-34.7 4.44,-23.65 -1.48,-37.92 -7.47,-45.86"
         id="path3" /></g></g></svg>
